Fly_normalized_Motion_pl05
version=1
nRows=23
nColumns=43
inDegrees=yes
endheader
time		pelvis_tilt		pelvis_list		pelvis_rotation		pelvis_tx		pelvis_ty		pelvis_tz		hip_flexion_r		hip_adduction_r		hip_rotation_r		knee_angle_r		ankle_angle_r		subtalar_angle_r		mtp_angle_r		hip_flexion_l		hip_adduction_l		hip_rotation_l		knee_angle_l		ankle_angle_l		subtalar_angle_l		mtp_angle_l		lumbar_extension		lumbar_bending		lumbar_rotation		neck_flexion		neck_lateral_bending		neck_rotation		arm_flex_r		arm_add_r		arm_rot_r		elbow_flex_r		pro_sup_r		wrist_flex_r		wrist_dev_r		hand_finger_flex_r		arm_flex_l		arm_add_l		arm_rot_l		elbow_flex_l		pro_sup_l		wrist_flex_l		wrist_dev_l		hand_finger_flex_l		
1.264167		2.366564		-8.792596		86.646835		0.007084		1.599692		0.924196		47.470868		2.239224		-4.324303		-42.901527		-13.942779		-2.374028		3.992422		43.935243		-8.715552		-5.920860		-32.914679		-20.998772		4.077731		26.502457		-40.455414		2.615443		-0.352681		5.801182		-5.268415		6.714453		7.311906		-28.996019		11.939959		66.919188		149.374332		6.687783		3.568228		-26.550581		0.669827		-27.925017		-5.272706		67.454604		128.559709		-2.421441		-6.092010		18.941711		
1.268662		2.318054		-8.469427		86.522383		0.006556		1.586058		0.914505		46.833987		2.177430		-4.282006		-41.919192		-14.209901		-2.098402		3.734164		43.300706		-8.733008		-6.178810		-32.308160		-21.285498		4.331002		26.428237		-40.164589		2.605543		-0.378965		4.609097		-5.401763		6.733105		4.897559		-29.179173		10.934990		66.892151		149.069462		6.292521		3.541304		-26.679250		-1.966209		-27.889735		-5.821063		67.510831		128.558328		-2.597966		-6.320142		18.710282		
1.273157		2.279617		-8.209117		86.426962		0.005950		1.572032		0.904860		46.279495		2.106175		-4.239519		-40.964021		-14.529995		-1.828077		3.593795		42.726662		-8.725055		-6.367132		-31.673886		-21.502878		4.561928		26.389808		-39.804681		2.623196		-0.426458		3.490168		-5.507013		6.749364		2.487341		-29.541649		10.172886		67.020617		148.772322		5.962914		3.475725		-26.808887		-4.666612		-28.034626		-6.129039		67.699231		128.509669		-2.744281		-6.531302		18.606064		
1.277652		2.211203		-7.948293		86.305134		0.005574		1.557911		0.895111		45.684262		2.034365		-4.163420		-39.990122		-14.801140		-1.466566		3.429936		42.096002		-8.738729		-6.660147		-31.005475		-21.728361		4.955297		26.332558		-39.432492		2.563739		-0.399467		2.424755		-5.554248		6.722719		-0.070257		-29.703728		9.058041		67.088888		148.308059		5.559002		3.299218		-26.961428		-7.281377		-28.050857		-6.533304		67.783955		128.503009		-3.005188		-6.780189		18.417287		
1.282146		2.067503		-7.627800		86.064769		0.005368		1.543681		0.885228		45.068516		1.967490		-3.930061		-39.113543		-15.041423		-0.884359		3.143725		41.298520		-8.789006		-7.225152		-30.244699		-21.842102		5.704304		26.190635		-39.109651		2.343637		-0.119433		1.302558		-5.543101		6.471009		-3.003184		-29.755928		7.333781		67.281111		147.531566		5.120624		2.689341		-27.080324		-9.739214		-28.125105		-6.685466		67.889243		128.784089		-3.297602		-7.265118		18.067173		
1.286641		2.006011		-7.363818		85.928144		0.005089		1.529049		0.875278		44.558300		1.900673		-3.814476		-38.367244		-15.463098		-0.345851		3.003363		40.619500		-8.841092		-7.658513		-29.571370		-22.069846		6.317949		26.062519		-38.657946		2.265218		0.073506		-0.137653		-5.588797		6.341642		-5.899824		-29.711345		5.705087		67.517252		146.933851		4.729634		2.473439		-27.142701		-12.358435		-28.062285		-7.113143		68.057743		128.826497		-3.589833		-7.617088		17.847829		
1.291136		1.949184		-7.148522		85.871316		0.004587		1.514217		0.865334		44.013938		1.798885		-3.728005		-37.484343		-15.891723		0.048513		2.916083		40.004579		-8.809062		-7.956386		-28.891212		-22.261626		6.679956		25.974718		-38.159921		2.262561		0.133338		-1.477626		-5.659564		6.303445		-8.625296		-29.880733		4.595785		67.796010		146.570761		4.435867		2.355294		-27.194135		-15.050208		-28.098350		-7.455309		68.310841		128.791878		-3.781385		-7.893328		17.729914		
1.295631		1.851600		-6.917225		85.788352		0.004087		1.499279		0.855256		43.408850		1.661339		-3.678064		-36.534951		-16.260362		0.547988		2.919174		39.337603		-8.752296		-8.316724		-28.204471		-22.544085		7.107327		25.906723		-37.651702		2.212090		0.183950		-2.890276		-5.691899		6.257867		-11.429634		-29.882770		3.246045		68.120736		146.162285		4.184429		2.207668		-27.245160		-17.730736		-27.999563		-7.966802		68.480163		128.691934		-4.056597		-8.152679		17.597606		
1.300126		1.695332		-6.619285		85.648485		0.003500		1.484268		0.845051		42.733261		1.492354		-3.486765		-35.636333		-16.570871		1.195255		3.084756		38.529751		-8.684862		-8.869888		-27.425471		-22.747407		7.592534		25.815068		-37.216763		2.083522		0.401054		-4.228128		-5.739915		6.016697		-14.409486		-29.875977		1.639005		68.574363		145.924095		4.325219		1.763870		-27.244198		-20.274196		-28.042606		-8.145240		68.717359		128.740132		-4.233694		-8.525585		17.421422		
1.304621		1.640282		-6.401194		85.627134		0.002791		1.468814		0.834893		42.141624		1.355872		-3.488028		-34.746805		-17.127489		1.467933		3.065540		37.936794		-8.606721		-9.068692		-26.842931		-22.961940		7.729520		25.791312		-36.664987		2.122926		0.371804		-5.756454		-5.813636		6.087432		-17.123352		-30.091486		0.805001		69.025680		145.851541		4.149274		1.804147		-27.398618		-23.135416		-27.973938		-8.642388		69.147907		128.563259		-4.446211		-8.692693		17.341186		
1.309116		1.581788		-6.217079		85.546096		0.002266		1.453124		0.824720		41.583115		1.254126		-3.516148		-33.846180		-17.686743		1.804731		3.063080		37.340751		-8.582609		-9.362035		-26.221633		-23.176559		7.966544		25.778392		-36.065970		2.120827		0.403741		-7.319536		-5.860437		6.103641		-19.918239		-30.173873		-0.246436		69.555291		145.744884		4.081909		1.802184		-27.562680		-25.997297		-27.834713		-9.217390		69.571017		128.424132		-4.692684		-8.872274		17.233461		
1.313611		1.534467		-6.067649		85.447151		0.001847		1.437181		0.814524		41.077421		1.181081		-3.564845		-32.970657		-18.296570		2.090081		3.040030		36.765144		-8.598710		-9.694623		-25.621266		-23.330363		8.226198		25.777067		-35.435291		2.111930		0.470081		-8.895592		-5.906597		6.112263		-22.762449		-30.220721		-1.328521		70.148531		145.639330		4.048027		1.789171		-27.731113		-28.884414		-27.683585		-9.823911		70.053450		128.332711		-4.946046		-9.081680		17.120576		
1.318106		1.493029		-5.945658		85.286352		0.001580		1.421013		0.804315		40.582990		1.148086		-3.633505		-32.091598		-18.915813		2.326861		3.008241		36.232719		-8.662438		-10.116316		-25.034376		-23.424027		8.560564		25.789725		-34.747965		2.076725		0.598400		-10.504589		-5.935570		6.082341		-25.643887		-30.135292		-2.549885		70.812606		145.520406		4.089139		1.742712		-27.911526		-31.756893		-27.456036		-10.484061		70.519679		128.331010		-5.221341		-9.335276		16.975143		
1.322601		1.450759		-5.821744		85.133381		0.001293		1.404666		0.794086		40.103705		1.114868		-3.690499		-31.247456		-19.491637		2.523705		2.970317		35.688297		-8.727379		-10.578629		-24.483813		-23.479222		8.900622		25.815617		-34.074352		2.041983		0.744683		-12.075002		-5.976020		6.026461		-28.560387		-30.062840		-3.749066		71.545841		145.408564		4.184257		1.614037		-28.115598		-34.629293		-27.264119		-11.109033		71.061010		128.404912		-5.468764		-9.663938		16.816388		
1.327096		1.414594		-5.660972		85.013785		0.000887		1.388251		0.783708		39.548091		1.036410		-3.855879		-30.382031		-19.961801		2.739505		2.894880		35.100341		-8.766249		-11.013186		-23.947111		-23.612584		9.109878		25.833739		-33.422442		2.026006		0.797477		-13.733291		-5.974221		6.012593		-31.417281		-29.977429		-4.852731		72.292726		145.152481		4.057530		1.545595		-28.301269		-37.556117		-26.934683		-11.877733		71.615978		128.324105		-5.788117		-9.958312		16.675242		
1.331591		1.366829		-5.480297		84.864167		0.000544		1.371714		0.773254		38.943595		0.948057		-4.052533		-29.496121		-20.299218		3.005751		2.816415		34.479509		-8.819797		-11.494368		-23.430269		-23.790274		9.324037		25.851422		-32.789439		1.983110		0.862848		-15.413047		-5.962452		5.939965		-34.279026		-29.853427		-5.979358		73.085287		144.760575		3.941659		1.408190		-28.462151		-40.478068		-26.560250		-12.675166		72.183488		128.212840		-6.108805		-10.281262		16.539738		
1.336086		1.326766		-5.269355		84.770166		0.000150		1.354997		0.762824		38.313233		0.846290		-4.247233		-28.642961		-20.563415		3.279258		2.738091		33.860256		-8.846842		-11.957197		-22.954631		-24.005600		9.487782		25.861090		-32.185305		1.955263		0.914621		-17.037007		-5.977179		5.863599		-37.144408		-29.773852		-6.982781		73.913815		144.337515		3.770734		1.244342		-28.613360		-43.393936		-26.188877		-13.482776		72.861492		128.032386		-6.410192		-10.611073		16.434451		
1.340581		1.287644		-5.001415		84.594470		-0.000093		1.338206		0.752269		37.628164		0.769153		-4.483763		-27.845431		-20.749806		3.659197		2.657561		33.186886		-8.929496		-12.463827		-22.557620		-24.280750		9.682563		25.869321		-31.635220		1.890980		0.943128		-18.760557		-5.969536		5.716502		-39.984288		-29.597359		-8.109421		74.818798		143.777128		3.576740		1.041089		-28.782400		-46.328193		-25.698951		-14.368941		73.465702		127.827928		-6.698257		-10.941479		16.340154		
1.345076		1.248545		-4.699586		84.445374		-0.000406		1.321242		0.741739		36.920051		0.671567		-4.681553		-27.082273		-20.914130		4.105012		2.578385		32.507403		-8.992438		-12.951430		-22.226589		-24.558033		9.857594		25.874650		-31.131978		1.851842		0.949406		-20.408537		-5.983036		5.586228		-42.832971		-29.443125		-9.162129		75.778258		143.219990		3.313256		0.844299		-28.976895		-49.241325		-25.191710		-15.253375		74.140448		127.632699		-6.948105		-11.260460		16.293933		
1.349571		1.207354		-4.380293		84.298125		-0.000770		1.304182		0.731125		36.146703		0.546815		-4.883940		-26.315915		-21.009270		4.775691		2.518374		31.813582		-9.054973		-13.494328		-21.915860		-24.820295		10.061317		25.883764		-30.681100		1.801669		1.016737		-22.024872		-6.004972		5.429632		-45.674850		-29.204482		-10.260996		76.701803		142.581739		3.005477		0.676813		-29.207015		-52.040734		-24.599105		-16.190559		74.765154		127.532804		-7.137277		-11.519659		16.353668		
1.354066		1.143239		-4.128013		84.204238		-0.001107		1.286713		0.720840		35.522915		0.413273		-4.986140		-25.637987		-21.276951		5.196734		2.458980		31.284324		-9.065606		-13.809261		-21.741006		-25.023794		10.160586		25.888281		-30.222736		1.747106		0.896586		-23.278478		-6.033271		5.388965		-48.389463		-29.101041		-11.110766		77.744256		142.224438		2.611744		0.542817		-29.422007		-54.875505		-24.129363		-16.942101		75.431501		127.440135		-7.301906		-11.727208		16.430375		
1.358561		1.089953		-3.911842		84.147526		-0.001458		1.268936		0.710654		34.966553		0.274238		-5.093957		-25.020904		-21.651231		5.594500		2.407887		30.846127		-9.083130		-14.085017		-21.654006		-25.227592		10.225570		25.887901		-29.736221		1.716083		0.803424		-24.565851		-6.090668		5.394729		-51.113579		-28.878459		-12.030527		78.801188		141.956701		2.152698		0.465255		-29.626445		-57.636541		-23.546412		-17.827801		76.121830		127.297466		-7.507549		-11.880884		16.494723		
1.363056		1.110703		-3.696759		83.966946		-0.001805		1.251204		0.700145		34.445310		0.176921		-5.405310		-24.555847		-22.004636		6.746542		2.473604		30.374123		-9.266958		-14.640253		-21.667939		-25.364303		10.494625		25.909185		-29.230679		1.744883		1.085125		-26.173217		-6.215256		5.124715		-53.825295		-28.132419		-13.484327		79.633130		141.377584		1.859873		0.397252		-29.814586		-59.940518		-22.657892		-19.047990		76.594745		127.530029		-7.235585		-11.824983		17.064727		
